# xmcd CD database file
#
# Track frame offsets:
#	150
#	21812
#	42067
#	60818
#	76809
#	97275
#	116139
#	137929
#	164127
#	184591
#	202771
#	224743
#
# Disc length: 3520 seconds
#
# Revision: 1
# Processed by: cddbd v1.5.2PL0 Copyright (c) Steve Scherf et al.
# Submitted via: CDex 1.70beta2
#
DISCID=a80dbe0c
DTITLE=エレファントカシマシ - 俺の道
DYEAR=2003
DGENRE=Rock
TTITLE0=生命賛歌
TTITLE1=俺の道
TTITLE2=ハロー人生!！
TTITLE3=どこへ？
TTITLE4=季節はずれの男
TTITLE5=勉強オレ
TTITLE6=ラスト・ゲーム
TTITLE7=覚醒（オマエに言った）
TTITLE8=ろくでなし
TTITLE9=オレの中の宇宙
TTITLE10=ロック屋（五月雨東京）
TTITLE11=隠しトラック
EXTD=YEAR: 2003
EXTT0=
EXTT1=
EXTT2=
EXTT3=
EXTT4=
EXTT5=
EXTT6=
EXTT7=
EXTT8=
EXTT9=
EXTT10=
EXTT11=
PLAYORDER=
